HIERARCHY
ROOT Hips
{
	OFFSET 0.000000 0.000000 0.000000
	CHANNELS 6 Xposition Yposition Zposition Xrotation Yrotation Zrotation
	JOINT LeftUpLeg_virtual
	{
		OFFSET 0.000000 0.000000 0.000000
		CHANNELS 3 Xrotation Yrotation Zrotation
		JOINT LeftUpLeg
		{
			OFFSET 10.205400 -3.823500 0.155100
			CHANNELS 3 Xrotation Yrotation Zrotation
			JOINT LeftLeg
			{
				OFFSET 0.708757 -12.982077 0.567790
				CHANNELS 3 Xrotation Yrotation Zrotation
				JOINT LeftFoot
				{
					OFFSET -0.708756 -10.717838 -2.184338
					CHANNELS 3 Xrotation Yrotation Zrotation
					JOINT LeftToeBase
					{
						OFFSET 0.108149 -7.191104 7.560241
						CHANNELS 3 Xrotation Yrotation Zrotation
						JOINT LeftToe_End
						{
							OFFSET 0.070230 0.081724 4.490308
							CHANNELS 3 Xrotation Yrotation Zrotation
							End Site
							{
								OFFSET 0 0 0
							}
						}
					}
				}
			}
		}
	}
	JOINT RightUpLeg_virtual
	{
		OFFSET 0.000000 0.000000 0.000000
		CHANNELS 3 Xrotation Yrotation Zrotation
		JOINT RightUpLeg
		{
			OFFSET -10.205400 -3.823500 0.005500
			CHANNELS 3 Xrotation Yrotation Zrotation
			JOINT RightLeg
			{
				OFFSET -0.708756 -12.982134 0.610632
				CHANNELS 3 Xrotation Yrotation Zrotation
				JOINT RightFoot
				{
					OFFSET 0.708754 -10.717769 -1.945823
					CHANNELS 3 Xrotation Yrotation Zrotation
					JOINT RightToeBase
					{
						OFFSET -0.108140 -7.191069 7.372968
						CHANNELS 3 Xrotation Yrotation Zrotation
						JOINT RightToe_End
						{
							OFFSET -0.070227 0.081735 4.479403
							CHANNELS 3 Xrotation Yrotation Zrotation
							End Site
							{
								OFFSET 0 0 0
							}
						}
					}
				}
			}
		}
	}
	JOINT Spine_virtual
	{
		OFFSET 0.000000 0.000000 0.000000
		CHANNELS 3 Xrotation Yrotation Zrotation
		JOINT Spine
		{
			OFFSET 0.000000 6.876099 0.125700
			CHANNELS 3 Xrotation Yrotation Zrotation
			JOINT Spine1
			{
				OFFSET 0.000000 5.730043 0.104720
				CHANNELS 3 Xrotation Yrotation Zrotation
				JOINT Spine1_split
				{
					OFFSET 0.000000 5.730043 0.104720
					CHANNELS 3 Xrotation Yrotation Zrotation
					JOINT Spine2
					{
						OFFSET 0.000000 5.730043 0.104720
						CHANNELS 3 Xrotation Yrotation Zrotation
						JOINT Neck_virtual
						{
							OFFSET 0.000000 0.000000 0.000000
							CHANNELS 3 Xrotation Yrotation Zrotation
							JOINT Neck
							{
								OFFSET 0.000000 10.314075 0.188496
								CHANNELS 3 Xrotation Yrotation Zrotation
								JOINT Head
								{
									OFFSET 0.000000 7.643700 -2.377400
									CHANNELS 3 Xrotation Yrotation Zrotation
									JOINT HeadTop_End
									{
										OFFSET 0.000000 43.788605 -13.619600
										CHANNELS 3 Xrotation Yrotation Zrotation
										End Site
										{
											OFFSET 0 0 0
										}
									}
								}
							}
						}
						JOINT LeftShoulder_virtual
						{
							OFFSET 0.000000 0.000000 0.000000
							CHANNELS 3 Xrotation Yrotation Zrotation
							JOINT LeftShoulder
							{
								OFFSET 2.196100 4.412489 0.087492
								CHANNELS 3 Xrotation Yrotation Zrotation
								JOINT LeftShoulder_split
								{
									OFFSET 2.196100 4.412489 0.087492
									CHANNELS 3 Xrotation Yrotation Zrotation
									JOINT LeftArm
									{
										OFFSET 8.771219 -2.981674 -0.026999
										CHANNELS 3 Xrotation Yrotation Zrotation
										JOINT LeftForeArm
										{
											OFFSET 8.512804 0.000000 -0.000000
											CHANNELS 3 Xrotation Yrotation Zrotation
											JOINT LeftHand
											{
												OFFSET 18.484802 0.000000 -0.000000
												CHANNELS 3 Xrotation Yrotation Zrotation
												End Site
												{
													OFFSET 0 0 0
												}
											}
										}
									}
								}
							}
						}
						JOINT RightShoulder_virtual
						{
							OFFSET 0.000000 0.000000 0.000000
							CHANNELS 3 Xrotation Yrotation Zrotation
							JOINT RightShoulder
							{
								OFFSET -2.196100 4.412496 0.070690
								CHANNELS 3 Xrotation Yrotation Zrotation
								JOINT RightShoulder_split
								{
									OFFSET -2.196100 4.412496 0.070690
									CHANNELS 3 Xrotation Yrotation Zrotation
									JOINT RightArm
									{
										OFFSET -8.771282 -2.981682 -0.094208
										CHANNELS 3 Xrotation Yrotation Zrotation
										JOINT RightForeArm
										{
											OFFSET -8.494598 0.000000 0.000000
											CHANNELS 3 Xrotation Yrotation Zrotation
											JOINT RightHand
											{
												OFFSET -18.483803 0.000000 0.000001
												CHANNELS 3 Xrotation Yrotation Zrotation
												End Site
												{
													OFFSET 0 0 0
												}
											}
										}
									}
								}
							}
						}
					}
				}
			}
		}
	}
}
MOTION
Frames: 5
Frame Time: 0.03333333
0.258518 25.161545 -2.331013 0.000000 0.000000 0.000000 -14.658865 5.612093 1.933602 -31.741668 -2.784289 13.648531 75.871381 -0.911470 0.078225 -37.298386 1.491570 -17.501132 -1.811522 0.037606 0.566077 0.000000 0.000000 0.000000 -13.616003 3.563505 1.615387 -26.390661 -2.226142 -25.338701 75.629401 4.979435 -0.138365 -39.045883 -6.810236 16.020535 2.525703 0.814996 -0.983445 0.000000 0.000000 0.000000 -13.183606 4.056288 1.499997 25.260036 -3.446294 -0.391659 16.676032 -0.232115 0.486816 -0.003924 1.101556 0.273970 0.000000 0.000000 0.000000 17.764928 -0.223495 0.646233 8.312605 -4.079983 1.186380 -12.458088 -2.009017 -4.152599 0.000000 0.000000 0.000000 18.402449 -0.387315 0.290607 0.716709 -19.081827 -4.261384 -1.389127 -1.829785 -4.599932 -29.523021 0.209744 -59.836282 -135.656040 -77.068480 -133.492864 0.000000 0.000000 0.000000 18.066571 -0.003730 0.776430 7.391361 3.009408 21.423220 2.641721 3.567816 4.055977 -31.411521 9.782027 42.600505 -104.141308 63.048848 95.085147 0.000000 0.000000 0.000000 
0.191709 25.366432 -2.118086 0.000000 0.000000 0.000000 -15.458472 5.323662 1.632326 -29.664034 -2.900310 14.026488 74.809354 -0.766883 0.241188 -37.486595 1.550941 -17.226879 -1.936626 0.040360 0.528314 0.000000 0.000000 0.000000 -14.543602 3.756637 1.378211 -24.238723 -2.472100 -24.605582 74.807353 4.838411 -0.075490 -39.451634 -6.935837 15.839115 2.496946 0.792134 -0.917461 0.000000 0.000000 0.000000 -14.432094 3.711839 1.347157 24.875506 -3.179550 -0.504335 16.165321 -0.174346 0.585218 -0.232061 0.704247 0.284544 0.000000 0.000000 0.000000 17.016303 -0.169496 0.663139 8.009167 -3.926888 0.574437 -11.891442 -1.638618 -3.707043 0.000000 0.000000 0.000000 18.158020 -0.467742 0.393990 0.557814 -19.344718 -5.434691 -0.720687 -2.153822 -4.008490 -27.265478 -1.355613 -60.175196 -131.438917 -79.898918 -129.232151 0.000000 0.000000 0.000000 17.548412 0.061522 0.925071 7.360985 3.371304 21.700459 2.259914 2.808797 4.222468 -28.593340 8.061302 40.973946 -103.142687 62.933500 93.660519 0.000000 0.000000 0.000000 
0.097978 25.637981 -1.914131 0.000000 0.000000 0.000000 -16.357944 4.993717 1.316996 -27.342729 -3.113931 14.513995 73.319840 -0.657471 0.419388 -37.500870 1.547598 -16.979432 -1.998712 0.032139 0.507500 0.000000 0.000000 0.000000 -15.600492 3.920743 1.153368 -21.692626 -2.967903 -23.792863 73.507268 4.723296 0.055338 -39.828640 -7.080541 15.621343 2.373576 0.778992 -0.853775 0.000000 0.000000 0.000000 -15.785267 3.602067 1.098765 24.233368 -2.861366 -0.520726 15.807781 -0.156474 0.729602 -0.210828 0.752813 0.351360 0.000000 0.000000 0.000000 16.445576 -0.173954 0.703253 7.598673 -3.661492 -0.145669 -11.535997 -1.182493 -3.167103 0.000000 0.000000 0.000000 17.984788 -0.562345 0.594947 0.425258 -20.042707 -6.560577 -0.695883 -2.364810 -3.672581 -24.539621 -3.767328 -59.599807 -122.627167 -82.201723 -119.868454 0.000000 0.000000 0.000000 17.083898 0.015878 1.123001 7.158279 3.571218 22.075492 1.439627 2.719313 4.157315 -24.859476 7.602346 39.182996 -104.526763 64.083362 94.670698 0.000000 0.000000 0.000000 
-0.012591 25.941648 -1.718447 0.000000 0.000000 0.000000 -17.235868 4.668797 1.042606 -24.988291 -3.371922 15.033530 71.558096 -0.590004 0.568757 -37.333766 1.494501 -16.779198 -1.987451 0.011651 0.525148 0.000000 0.000000 0.000000 -16.682336 3.977075 0.980041 -19.104304 -3.649131 -23.005438 71.872305 4.663450 0.243564 -40.068745 -7.226634 15.426783 2.141872 0.773426 -0.828691 0.000000 0.000000 0.000000 -17.037197 3.770150 0.830745 23.530121 -2.559288 -0.460811 15.533018 -0.185182 0.867880 0.219919 1.195031 0.586086 0.000000 0.000000 0.000000 16.028442 -0.224232 0.749597 6.882391 -3.288777 -0.854968 -11.541736 -0.757354 -2.523268 0.000000 0.000000 0.000000 17.720957 -0.659114 0.848274 0.376159 -20.850510 -7.370329 -1.052782 -2.493968 -3.742928 -22.274613 -6.027859 -58.303799 -114.965293 -83.571080 -111.190740 0.000000 0.000000 0.000000 16.627858 -0.126129 1.316848 6.870743 3.468623 22.483176 0.336648 2.909914 4.086792 -20.672922 7.866720 38.018708 -107.464509 66.277820 97.186400 0.000000 0.000000 0.000000 
-0.114341 26.245548 -1.538280 0.000000 0.000000 0.000000 -17.998317 4.389097 0.848268 -22.839934 -3.636907 15.484857 69.750862 -0.531228 0.656732 -37.015677 1.456593 -16.623454 -1.908834 -0.008209 0.564642 0.000000 0.000000 0.000000 -17.638530 3.932038 0.854379 -16.705642 -4.418040 -22.291448 70.080002 4.663612 0.479167 -40.229363 -7.370483 15.223534 1.936612 0.771893 -0.855417 0.000000 0.000000 0.000000 -18.103920 4.094648 0.622774 22.888065 -2.326920 -0.349139 15.230094 -0.265848 0.954266 0.817402 1.616348 0.752428 0.000000 0.000000 0.000000 15.643034 -0.313624 0.799697 5.782492 -2.795893 -1.414328 -11.991522 -0.504581 -1.801341 0.000000 0.000000 0.000000 17.301924 -0.748415 1.066920 0.406745 -21.482830 -7.911207 -1.800128 -2.448806 -4.373411 -20.473603 -7.445388 -56.967247 -115.314056 -84.527894 -110.276027 0.000000 0.000000 0.000000 16.123879 -0.326088 1.436198 6.573173 3.071898 22.917402 -0.563797 3.307108 3.915168 -16.607252 8.178369 37.798905 -111.313642 69.165637 100.466851 0.000000 0.000000 0.000000 
